PathFileType	4	(X/Y/Z)	./resultDataOpenSim/trcMotMarkerGrf/sub10/qtm-14-07.trc
DataRate	CameraRate	NumFrames	NumMarkers	Units	OrigDataRate	OrigDataStartFrame	OrigNumFrames
250.000000	250.000000	12	24	m	250.000000	384	511
Frame#	Time	L.Toe.Tip			R.Toe.Tip			L.Ankle.Lat			R.Ankle.Lat			L.Ankle.Med			R.Ankle.Med			L.Heel			R.Heel			L.Knee.Lat			R.Knee.Lat			L.Knee.Med			R.Knee.Med			L.Thigh.Upper			R.Thigh.Upper			L.ASIS			R.ASIS			V.Sacral			L.Acromium			R.Acromium			C7			L.Elbow			R.Elbow			L.Wrist.Lat			R.Wrist.Lat
		X1	Y1	Z1	X2	Y2	Z2	X3	Y3	Z3	X4	Y4	Z4	X5	Y5	Z5	X6	Y6	Z6	X7	Y7	Z7	X8	Y8	Z8	X9	Y9	Z9	X10	Y10	Z10	X11	Y11	Z11	X12	Y12	Z12	X13	Y13	Z13	X14	Y14	Z14	X15	Y15	Z15	X16	Y16	Z16	X17	Y17	Z17	X18	Y18	Z18	X19	Y19	Z19	X20	Y20	Z20	X21	Y21	Z21	X22	Y22	Z22	X23	Y23	Z23	X24	Y24	Z24

384	1.532	0.8913739	0.070975532	-0.19809958	0.8300992	0.038352134	0.014904399	0.78295335	0.15305268	-0.21432533	0.68802178	0.055031673	0.056955508	0.80900901	0.16147282	-0.131502	0.70539026	0.083049819	-0.025604773	0.71396791	0.14546693	-0.16633743	0.63618995	0.032385213	0.013977154	0.96692174	0.4927519	-0.2051969	0.76251157	0.45176761	0.09928778	0.98572161	0.4587955	-0.087493899	0.76643069	0.45508612	-0.029704052	0.84728234	0.85355706	-0.23328805	0.7858951	0.86608949	0.14774554	0.88608813	0.96545834	-0.15479939	0.86832645	0.95920382	0.088221385	0.67723678	0.97269383	-0.060502907	0.79226778	1.4420115	-0.17482476	0.74811634	1.4270408	0.14317167	0.69623643	1.4551408	-0.028353213	0.67703133	1.1304597	-0.27919282	0.67983735	1.0845417	0.20705399	0.7964151	0.94805188	-0.39309668	0.79583292	0.94244551	0.37059812
385	1.536	0.90832836	0.069941188	-0.19828927	0.83006376	0.038342238	0.014919996	0.79750334	0.14883894	-0.21394489	0.68794784	0.055028825	0.056967783	0.82352536	0.15788016	-0.13119031	0.70543359	0.083050391	-0.025623508	0.7287728	0.13943159	-0.16568918	0.63626633	0.032314518	0.014060195	0.97440398	0.49279909	-0.20506125	0.76403793	0.45152492	0.099338016	0.99354009	0.45887173	-0.087470373	0.76799044	0.45488226	-0.029636858	0.85312566	0.8533046	-0.23316573	0.7892084	0.86569559	0.14749536	0.89144053	0.96511919	-0.1543734	0.87201735	0.95885501	0.08876061	0.68210405	0.97192524	-0.061553575	0.79701236	1.4411881	-0.17505797	0.75287455	1.4262939	0.14319779	0.70078866	1.4546046	-0.028557392	0.68053554	1.1298345	-0.27819567	0.68585259	1.0832764	0.20759203	0.79785064	0.94634143	-0.39228849	0.80557666	0.94169918	0.36883836
386	1.54	0.92517711	0.068978596	-0.1983993	0.83002179	0.038341251	0.014944931	0.8121612	0.14465116	-0.21355188	0.68783738	0.055033194	0.056995437	0.83804987	0.15433667	-0.13086639	0.70530914	0.083046797	-0.025719161	0.74374355	0.13348206	-0.16502564	0.63621341	0.032263306	0.014002424	0.98179417	0.49277839	-0.20493859	0.76560727	0.45126943	0.099372513	1.0007773	0.45888124	-0.087518012	0.76945908	0.45468814	-0.029680769	0.85899276	0.85302709	-0.23306003	0.79255224	0.86528033	0.1472312	0.8967841	0.96474313	-0.15396687	0.87572869	0.95847707	0.08928099	0.68695073	0.97113545	-0.062613067	0.80175538	1.4403269	-0.17529941	0.7576393	1.4254948	0.14322577	0.70534468	1.4540277	-0.028775535	0.68408422	1.1291774	-0.27721083	0.69204285	1.0820967	0.20817533	0.79928455	0.94463987	-0.39153539	0.81530766	0.94096752	0.3670312
387	1.544	0.94197737	0.06810936	-0.19844606	0.82998334	0.03835679	0.014987008	0.8269125	0.14051467	-0.21315252	0.6877336	0.055035331	0.057022649	0.85258401	0.15081148	-0.13059763	0.70509773	0.083031758	-0.025861703	0.75891647	0.12761731	-0.16435738	0.63609731	0.032221139	0.013877137	0.98899217	0.49269339	-0.2048464	0.76726417	0.4510208	0.099444057	1.0077274	0.45881038	-0.087606245	0.77090158	0.45447634	-0.029816764	0.86493535	0.85273241	-0.23299225	0.79591986	0.86483113	0.14695308	0.90208853	0.96432553	-0.15360856	0.8794735	0.95807554	0.089792538	0.69176348	0.97032261	-0.063709172	0.80649715	1.4394359	-0.17553626	0.76242391	1.4246597	0.1432623	0.70990308	1.4534093	-0.029013357	0.68768495	1.1284869	-0.27624551	0.69839882	1.0810364	0.20891702	0.80072176	0.94294379	-0.39083753	0.82501951	0.94024862	0.36517461
388	1.548	0.95876602	0.067346211	-0.19844722	0.82996192	0.038393269	0.015047125	0.84174682	0.1364546	-0.21274814	0.68767089	0.055027204	0.057034822	0.86727689	0.14727504	-0.13047303	0.70494464	0.083002	-0.025989825	0.77431522	0.1218238	-0.163692	0.63598652	0.032186314	0.013758879	0.99599439	0.49252721	-0.20478995	0.76900237	0.45076556	0.099532957	1.0145873	0.45866013	-0.087703759	0.77253529	0.45422124	-0.029933212	0.87094448	0.85241801	-0.23296537	0.79932225	0.86435372	0.14667164	0.90734457	0.96386815	-0.15329791	0.88325112	0.95765352	0.090292393	0.69655625	0.96947448	-0.064889487	0.8112408	1.4385227	-0.17576493	0.76722092	1.4238042	0.14330504	0.71446147	1.4527482	-0.029269007	0.69133543	1.1277671	-0.27530616	0.70485288	1.0800495	0.2098136	0.80216994	0.94123791	-0.39017052	0.83470735	0.93953748	0.36326498
389	1.552	0.97554796	0.066694355	-0.19841014	0.82996139	0.038445313	0.015110908	0.85665753	0.13248341	-0.21233177	0.68764858	0.055010094	0.057030118	0.88247163	0.14379168	-0.13049149	0.70488873	0.082961664	-0.026088227	0.78992717	0.11607854	-0.16304465	0.63591626	0.032162846	0.013684	1.0028528	0.49226196	-0.20475871	0.77078288	0.45047412	0.099573125	1.0214517	0.45844628	-0.08779385	0.77454765	0.4539163	-0.029927655	0.87696202	0.85206878	-0.23296292	0.8027762	0.86386215	0.14640136	0.91256412	0.96337988	-0.1530227	0.88705154	0.95720763	0.090762062	0.70136526	0.96854996	-0.066159797	0.81598703	1.4375858	-0.17599266	0.77200112	1.422921	0.1433391	0.71901628	1.4520464	-0.029537375	0.69503056	1.1270228	-0.27439562	0.71129003	1.0790061	0.21070284	0.80364028	0.93950779	-0.38950441	0.84436972	0.93883183	0.36130044
390	1.556	0.99231114	0.06615684	-0.19833025	0.82997009	0.038498485	0.015158351	0.87164074	0.12860567	-0.21189334	0.68764895	0.054991454	0.05701406	0.89841722	0.14053853	-0.1305315	0.70486548	0.082924127	-0.026184015	0.80567955	0.11038713	-0.16244011	0.63587553	0.032153981	0.013635151	1.009612	0.49189295	-0.20474094	0.77259415	0.4501408	0.099537003	1.0283474	0.4581814	-0.087873024	0.77691586	0.45357121	-0.029815606	0.88289505	0.85166458	-0.23295826	0.80629229	0.86336457	0.14615155	0.91776692	0.9628751	-0.15276833	0.89087756	0.95673528	0.091184947	0.706213	0.96750756	-0.067428949	0.82073035	1.4366152	-0.17623068	0.77674304	1.4219901	0.14335005	0.72356628	1.4513042	-0.02981702	0.69876566	1.1262562	-0.27351254	0.71762671	1.0777921	0.21144194	0.80514584	0.93775095	-0.38882226	0.85401026	0.93813532	0.35928115
391	1.56	1.009041	0.065737845	-0.19819691	0.8299791	0.03853755	0.015186056	0.88669527	0.1248283	-0.21142738	0.68766201	0.054978934	0.056990193	0.91489268	0.137658	-0.1304815	0.70483301	0.082902699	-0.026294915	0.82145672	0.10481304	-0.16187887	0.63581953	0.032165006	0.013553195	1.0162919	0.49142816	-0.20473865	0.7744749	0.44979082	0.099466248	1.0352466	0.45786262	-0.087943985	0.779467	0.45319086	-0.029696189	0.88869557	0.85119655	-0.23294709	0.80987305	0.86286192	0.14592126	0.92297289	0.96236238	-0.15250896	0.89474476	0.95623807	0.091556496	0.71107882	0.96636158	-0.068565094	0.82546358	1.4356027	-0.17648548	0.78145703	1.4210129	0.1433359	0.72811519	1.4505184	-0.03010738	0.70253639	1.1254685	-0.27265603	0.72389472	1.076372	0.21204447	0.80669036	0.93597278	-0.38812389	0.86362765	0.9374526	0.35720859
392	1.564	1.0257241	0.065444481	-0.19800212	0.82999868	0.038557589	0.015211266	0.90182032	0.12116189	-0.21093118	0.6876882	0.054977781	0.05695837	0.93135007	0.1351139	-0.13032574	0.70485897	0.082886209	-0.026402925	0.8371913	0.099428302	-0.16131926	0.6356993	0.032205244	0.013372091	1.0229017	0.49088192	-0.20475993	0.7764725	0.44944474	0.099412055	1.0421026	0.45747956	-0.088010905	0.78206051	0.45276802	-0.029644263	0.89442069	0.8506742	-0.23296006	0.81351662	0.86235349	0.14570342	0.92819607	0.96182908	-0.15220779	0.89865823	0.95571579	0.091873509	0.71592928	0.9651653	-0.069512011	0.83018587	1.4345505	-0.17675341	0.78617216	1.4200152	0.14330452	0.73267027	1.4496891	-0.030401469	0.7063422	1.1246607	-0.27182762	0.73019103	1.0747533	0.21258973	0.80825786	0.93417853	-0.38741701	0.87320943	0.93678523	0.35508804
393	1.568	1.0423503	0.065281065	-0.19774653	0.83003789	0.038566082	0.015248935	0.91700892	0.11761722	-0.21040222	0.68772998	0.054989615	0.056917502	0.94737815	0.13273132	-0.13007354	0.705055	0.08284108	-0.026480667	0.85293761	0.094249286	-0.16070468	0.6355088	0.03227738	0.013081247	1.0294521	0.49026664	-0.20480634	0.77859056	0.44909091	0.099365161	1.0488896	0.45702975	-0.088077538	0.78466607	0.4522957	-0.029668219	0.90016211	0.85011306	-0.2330246	0.81722119	0.86183887	0.14549133	0.93343711	0.96124037	-0.15184096	0.90260739	0.95516466	0.092127932	0.7207664	0.96393434	-0.070301818	0.83490233	1.4334684	-0.17702218	0.79090324	1.4190112	0.14326185	0.73723813	1.4488207	-0.030688944	0.71018546	1.1238336	-0.27103043	0.73652886	1.0729889	0.21307737	0.80981331	0.93237061	-0.38670107	0.88274475	0.93613408	0.35292773
394	1.572	1.0589172	0.065241018	-0.19743694	0.83006277	0.038568229	0.015284758	0.93224196	0.1142014	-0.20984377	0.6877877	0.055011873	0.056866803	0.96290146	0.13036276	-0.1297175	0.70540294	0.082757737	-0.026537838	0.86880875	0.08925028	-0.16001082	0.63531008	0.032367414	0.012761421	1.0359453	0.48958322	-0.20487618	0.78078982	0.44870402	0.099264748	1.0556064	0.45652196	-0.088146258	0.78732075	0.45177697	-0.029739362	0.90593901	0.84951867	-0.23313068	0.82098472	0.86131405	0.14528057	0.93867816	0.96056008	-0.15143978	0.90658154	0.95458122	0.092315403	0.72561213	0.96265035	-0.071020327	0.83961535	1.4323638	-0.17728067	0.79564361	1.4179877	0.14320747	0.74181974	1.4479157	-0.030965471	0.71406687	1.1229878	-0.27027066	0.74277557	1.0712178	0.21342487	0.81132263	0.93055043	-0.38596395	0.8922338	0.93550214	0.35073313
395	1.576	1.0754256	0.065312818	-0.19707967	0.83000567	0.038556673	0.015281027	0.94749468	0.11091691	-0.20926355	0.68785977	0.05504048	0.05680587	0.9780939	0.12799406	-0.12927362	0.70574583	0.082666574	-0.026610599	0.8848443	0.084420577	-0.15926796	0.63517807	0.032457014	0.012513862	1.0423596	0.48881742	-0.20496982	0.78303232	0.44827542	0.099063447	1.0622561	0.45596813	-0.088215647	0.7900662	0.45122234	-0.029828321	0.91170557	0.84888296	-0.23324977	0.82480083	0.86076831	0.14506924	0.9438827	0.95977537	-0.15111354	0.91058052	0.95396424	0.092441827	0.73046968	0.96132557	-0.071766398	0.84432068	1.4312387	-0.17752676	0.80038848	1.416936	0.14314236	0.74641032	1.446972	-0.031232213	0.71798933	1.1221223	-0.26955352	0.74875579	1.0695852	0.2136083	0.812806	0.92872049	-0.38520567	0.90167578	0.93489345	0.34850419
